<svg xmlns="http://www.w3.org/2000/svg" width="1200" height="630" viewBox="0 0 1200 630">
  <rect width="1200" height="630" fill="#000000"/>

  <circle cx="1050" cy="120" r="260" fill="#2563eb" opacity="0.12"/>
  <circle cx="120" cy="560" r="300" fill="#3b82f6" opacity="0.08"/>

  <rect x="90" y="120" width="10" height="180" rx="5" fill="#2563eb"/>

  <text x="130" y="170" font-family="Arial, sans-serif" font-size="34" font-weight="bold" fill="#60a5fa" letter-spacing="6">ZEKTECH</text>
  <text x="130" y="240" font-family="Arial, sans-serif" font-size="64" font-weight="800" fill="#ffffff">Inibehe Ezekiel John</text>
  <text x="130" y="300" font-family="Arial, sans-serif" font-size="40" font-weight="bold" fill="#e5e5e5">Full-Stack Web Developer</text>

  <g font-family="Arial, sans-serif" font-size="24" font-weight="bold" fill="#ffffff">
    <g>
      <circle cx="130" cy="380" r="30" fill="#2563eb"/>
      <circle cx="130" cy="380" r="12" fill="#ffffff"/>
      <text x="185" y="392">React</text>
    </g>
    <g>
      <circle cx="320" cy="380" r="30" fill="#2563eb"/>
      <circle cx="320" cy="380" r="12" fill="#ffffff"/>
      <text x="375" y="392">Node.js</text>
    </g>
    <g>
      <circle cx="520" cy="380" r="30" fill="#2563eb"/>
      <circle cx="520" cy="380" r="12" fill="#ffffff"/>
      <text x="575" y="392">Tailwind</text>
    </g>
    <g>
      <circle cx="720" cy="380" r="30" fill="#2563eb"/>
      <circle cx="720" cy="380" r="12" fill="#ffffff"/>
      <text x="775" y="392">Express</text>
    </g>
  </g>

  <rect x="130" y="470" width="360" height="70" rx="35" fill="#2563eb"/>
  <text x="310" y="514" text-anchor="middle" font-family="Arial, sans-serif" font-size="28" font-weight="bold" fill="#ffffff" letter-spacing="2">HIRE ME</text>

  <text x="920" y="590" text-anchor="end" font-family="Arial, sans-serif" font-size="24" fill="#a3a3a3">hello.zektech@gmail.com</text>
</svg>
